<?xml version="1.0" encoding="UTF-8"?>
<svg viewBox="0 0 416.89 199.97" xmlns="http://www.w3.org/2000/svg">
  <defs>
    <style>
      .cls-1,
      .cls-4 {
        fill: #222863;
      }

      .cls-2,
      .cls-3 {
        fill: #4592c3;
      }

      .cls-3 {
        stroke: #4592c3;
      }

      .cls-3,
      .cls-4 {
        stroke-miterlimit: 10;
        stroke-width: 0.25px;
      }

      .cls-4 {
        stroke: #222863;
      }
    </style>
  </defs>
  <g data-name="Capa 2">
    <g data-name="Capa 3">
      <rect class="cls-1" x="203.6" y="33.66" width="5.65" height="5.65" />
      <rect class="cls-1" x="203.6" y="43.17" width="5.65" height="5.64" />
      <rect class="cls-1" x="213.12" y="33.66" width="5.64" height="5.65" />
      <rect class="cls-1" x="213.12" y="43.17" width="5.64" height="5.64" />
      <path class="cls-1" d="M169.65,52.71h9.18L211.2,14.76l32.07,39C264.6,42.36,301.8,4.68,253.2,0c0,0,37,7.8-8.28,43.08L211.14,2.94Z" />
      <path class="cls-2" d="m192.42 12.72c2.87-1.15 5.72-2.18 8.53-3.11l-7.34 8.93c-25.69 11.1-42.61 28.29-38.25 39.26 1.08 2.68 3.34 4.76 6.52 6.22-7.69-1-13.1-3.76-14.95-8.37-4.71-11.78 15.66-31 45.49-42.93z" />
      <path class="cls-2" d="m255.36 18.64a6.28 6.28 0 0 0-0.25-0.73c-3.17-7.93-16.67-10.53-33.85-7.69l-3.91-4.89c19.17-3.61 34.28-1.25 37.63 7.12a10.42 10.42 0 0 1 0.38 6.19z" />
      <path class="cls-2" d="m235.09 50.58 4.27 6.09a200.13 200.13 0 0 1-28.76 11.69c-37.92 12.64-61.6 9.58-69.93-1.61 12.51 8 33.78 7.91 68.13-4.33a171.78 171.78 0 0 0 26.29-11.84z" />
      <path class="cls-3" d="M15.85,95.28a31.64,31.64,0,0,1,8,.87,14.67,14.67,0,0,1,5.26,2.4A9,9,0,0,1,32,102.24a12.23,12.23,0,0,1,.88,4.71,14.11,14.11,0,0,1-.81,4.72,9.94,9.94,0,0,1-2.81,4.12,14.61,14.61,0,0,1-5.35,2.91,27.7,27.7,0,0,1-8.46,1.1h-4v15h6.05v2.3H.13v-2.3H5.89V97.59H.13V95.28ZM11.5,117.49h3.55a25.85,25.85,0,0,0,5.57-.5,8,8,0,0,0,3.62-1.71,6.76,6.76,0,0,0,1.94-3.22,17.7,17.7,0,0,0,.59-5,18.17,18.17,0,0,0-.44-4.26,5.93,5.93,0,0,0-1.69-3,7.63,7.63,0,0,0-3.44-1.72,24.62,24.62,0,0,0-5.69-.54h-4Z" />
      <path class="cls-3" d="M51.5,135.53q1.57,0,2.76-.12a8.61,8.61,0,0,0,2.09-.46,4.64,4.64,0,0,0,1.54-.92A5.27,5.27,0,0,0,59,132.48a11.88,11.88,0,0,0,.8-2.31,31.9,31.9,0,0,0,.59-3.23H61.8l-.44,10.2H38.79v-1.61h4V109.45h-4v-1.61h12v1.61h-4v26.08Z" />
      <path class="cls-3" d="M66.82,122.76a19.93,19.93,0,0,1,1-6.49,14.5,14.5,0,0,1,2.73-4.91,12,12,0,0,1,4.18-3.12,13,13,0,0,1,5.34-1.09,12.63,12.63,0,0,1,5.21,1.06,11.29,11.29,0,0,1,4,3A13.7,13.7,0,0,1,91.87,116a19.85,19.85,0,0,1,.92,6.23,20.86,20.86,0,0,1-.9,6.26,14.49,14.49,0,0,1-2.59,4.95,12,12,0,0,1-4.14,3.25,13.7,13.7,0,0,1-10.8.12,11.18,11.18,0,0,1-4-3,13.84,13.84,0,0,1-2.6-4.75A20,20,0,0,1,66.82,122.76Zm4.37-.12a34.6,34.6,0,0,0,.3,4.87,18.57,18.57,0,0,0,.82,3.59,9.08,9.08,0,0,0,1.3,2.49,6.5,6.5,0,0,0,1.72,1.57,6.21,6.21,0,0,0,2,.82,12.07,12.07,0,0,0,4.69,0,6.31,6.31,0,0,0,2.09-.83,6.42,6.42,0,0,0,1.75-1.6A9,9,0,0,0,87.26,131a18.61,18.61,0,0,0,.85-3.67,36,36,0,0,0,.31-5,34.6,34.6,0,0,0-.3-4.87,18.86,18.86,0,0,0-.82-3.6,9,9,0,0,0-1.3-2.5,6.62,6.62,0,0,0-1.71-1.57,6.13,6.13,0,0,0-2.05-.82,11.06,11.06,0,0,0-2.34-.23,11.21,11.21,0,0,0-2.35.24,6.64,6.64,0,0,0-2.1.83,6.43,6.43,0,0,0-1.76,1.6A9.53,9.53,0,0,0,72.35,114a18.45,18.45,0,0,0-.85,3.67A34.63,34.63,0,0,0,71.19,122.64Z" />
      <path class="cls-3" d="M124.44,135.53V110h-.11l-10.48,27.46h-1.6L102.41,110h-.1v25.51h3.63v1.61H96.47v-1.61h4V109.45h-4v-1.61h9.33l8.41,23.33h.08l9-23.33h9.15v1.61h-4v26.08h4v1.61H120.81v-1.61Z" />
      <path class="cls-3" d="M144.81,121.13h2.64a20.44,20.44,0,0,0,2.26-.1,2.64,2.64,0,0,0,1.46-.58A2.81,2.81,0,0,0,152,119a14,14,0,0,0,.41-2.81h1.43v11.94h-1.43a18.66,18.66,0,0,0-.34-2.9,3.34,3.34,0,0,0-.79-1.6,2.6,2.6,0,0,0-1.46-.69,16.73,16.73,0,0,0-2.37-.14h-2.64v12.75h5.34q1.57,0,2.76-.12A8.33,8.33,0,0,0,155,135a4.35,4.35,0,0,0,1.52-.9,5.22,5.22,0,0,0,1.1-1.52,11,11,0,0,0,.79-2.26c.21-.88.41-1.93.6-3.14h1.41l-.4,10H136.84v-1.61h4V109.45h-4v-1.61h22.67l.4,8.09H158.5a17.71,17.71,0,0,0-.75-3.28,4.67,4.67,0,0,0-1.24-2,4.34,4.34,0,0,0-2.07-1,18.06,18.06,0,0,0-3.24-.25h-6.39Z" />
      <path class="cls-3" d="M176.48,107.84a25.78,25.78,0,0,1,5.4.48,10.78,10.78,0,0,1,3.55,1.37,5.27,5.27,0,0,1,1.94,2.15,6.56,6.56,0,0,1,.58,2.8,7.83,7.83,0,0,1-.41,2.52,6.71,6.71,0,0,1-1.24,2.15,7.52,7.52,0,0,1-2.07,1.67,10.94,10.94,0,0,1-2.91,1.06v.08a6.55,6.55,0,0,1,2.28.94,5.1,5.1,0,0,1,1.46,1.54,7.5,7.5,0,0,1,.86,2.06c.21.78.4,1.63.56,2.56s.3,1.82.43,2.61a10.49,10.49,0,0,0,.52,2,3,3,0,0,0,.87,1.33,2.3,2.3,0,0,0,1.55.48l.51,0c.22,0,.47,0,.74-.08v1.55c-.23,0-.48.1-.75.14s-.54.07-.82.09-.54,0-.8,0H188a8.06,8.06,0,0,1-2.75-.37,3.08,3.08,0,0,1-1.53-1.16,5.09,5.09,0,0,1-.76-2q-.23-1.19-.42-2.82c-.21-1.59-.41-2.92-.61-4a8.36,8.36,0,0,0-.85-2.59,3.11,3.11,0,0,0-1.47-1.4,6.42,6.42,0,0,0-2.52-.41h-3.79v12.85h4.23v1.61h-12.2v-1.61h4V109.45h-4v-1.61Zm-3.15,13.23H176a14.94,14.94,0,0,0,3.64-.37,5.65,5.65,0,0,0,2.36-1.13,4.22,4.22,0,0,0,1.27-2,9.74,9.74,0,0,0,.38-2.89,8.35,8.35,0,0,0-.31-2.41,3.11,3.11,0,0,0-1.12-1.63,5.58,5.58,0,0,0-2.26-.92,19.81,19.81,0,0,0-3.74-.29h-2.9Z" />
      <path class="cls-3" d="m203.22 109.45v26.08h4v1.61h-12v-1.61h4v-26.08h-4v-1.61h12v1.61z" />
      <path class="cls-3" d="M220.52,135.53v1.61H210.7v-1.61h3.83l10.49-28h1.59l9.84,28h4v1.61H228v-1.61h4.2l-3-8.61h-9.52l-3.2,8.61Zm4-21.62-4.25,11.37h8.33l-4-11.37Z" />
      <path class="cls-4" d="M293.07,124.61,292.66,136c-.92.32-1.91.62-3,.88s-2.14.48-3.24.66-2.17.32-3.24.42-2.06.14-3,.14a20.11,20.11,0,0,1-7.94-1.5,16.45,16.45,0,0,1-6-4.28,18.94,18.94,0,0,1-3.77-6.75,28.36,28.36,0,0,1-1.32-9,28.93,28.93,0,0,1,1.39-9.22,20.27,20.27,0,0,1,3.94-7,17.24,17.24,0,0,1,6.21-4.5,20.51,20.51,0,0,1,8.14-1.57c.85,0,1.74,0,2.68.13s1.9.21,2.87.38,1.93.36,2.88.59,1.87.49,2.75.77l.34,10.52h-2a15.73,15.73,0,0,0-1.14-5.11,8.29,8.29,0,0,0-2.2-3.07,7.45,7.45,0,0,0-3-1.5,14.94,14.94,0,0,0-3.54-.4,18,18,0,0,0-3.6.34,10.16,10.16,0,0,0-3.16,1.21,10,10,0,0,0-2.62,2.31,12.38,12.38,0,0,0-2,3.66,27,27,0,0,0-1.26,5.25,57,57,0,0,0,0,14.06,25.75,25.75,0,0,0,1.22,5.14,12.18,12.18,0,0,0,1.93,3.56,9.6,9.6,0,0,0,2.54,2.22,9.36,9.36,0,0,0,3,1.14,18.21,18.21,0,0,0,3.45.32,15.28,15.28,0,0,0,4.05-.51,8,8,0,0,0,3.29-1.77,9.75,9.75,0,0,0,2.36-3.43,19,19,0,0,0,1.28-5.5Z" />
      <path class="cls-4" d="M308.48,135.53v1.61h-9.82v-1.61h3.83l10.49-28h1.59l9.84,28h4v1.61H316v-1.61h4.2l-3-8.61h-9.52l-3.2,8.61Zm4-21.62-4.25,11.37h8.33l-4-11.37Z" />
      <path class="cls-4" d="M352.52,128.37l-.28,8a20,20,0,0,1-2.09.62c-.74.18-1.5.33-2.26.46s-1.53.23-2.27.3-1.44.1-2.09.1a14,14,0,0,1-5.55-1.05,11.55,11.55,0,0,1-4.2-3,13.18,13.18,0,0,1-2.64-4.73,21.88,21.88,0,0,1,.05-12.72A14.25,14.25,0,0,1,334,111.4a12.12,12.12,0,0,1,4.35-3.15,14.29,14.29,0,0,1,5.69-1.1c.6,0,1.22,0,1.88.09s1.33.15,2,.27,1.35.25,2,.41,1.31.34,1.93.54l.24,7.37h-1.41a11.1,11.1,0,0,0-.8-3.58,5.75,5.75,0,0,0-1.54-2.15,5.2,5.2,0,0,0-2.1-1,10.41,10.41,0,0,0-2.48-.28,12.75,12.75,0,0,0-2.52.24,6.9,6.9,0,0,0-2.21.85,6.76,6.76,0,0,0-1.83,1.61,8.47,8.47,0,0,0-1.38,2.56,18.78,18.78,0,0,0-.88,3.68,34.29,34.29,0,0,0-.31,5,34.8,34.8,0,0,0,.3,4.89,18,18,0,0,0,.86,3.6,8.59,8.59,0,0,0,1.35,2.49,6.59,6.59,0,0,0,1.77,1.55,6.52,6.52,0,0,0,2.13.8,12.59,12.59,0,0,0,2.42.22,10.55,10.55,0,0,0,2.83-.35,5.66,5.66,0,0,0,2.3-1.24,6.69,6.69,0,0,0,1.66-2.4,13.42,13.42,0,0,0,.89-3.85Z" />
      <path class="cls-4" d="M361.61,135.53V109.45h-4v-1.61h12v1.61h-4v11.68H379V109.45h-4v-1.61h12v1.61h-4v26.08h4v1.61H375v-1.61h4V122.78H365.55v12.75h4v1.61h-12v-1.61Z" />
      <path class="cls-4" d="M390.79,122.76a20.2,20.2,0,0,1,1-6.49,14.5,14.5,0,0,1,2.73-4.91,12,12,0,0,1,4.19-3.12,13,13,0,0,1,5.33-1.09,12.6,12.6,0,0,1,5.21,1.06,11.41,11.41,0,0,1,4,3,13.87,13.87,0,0,1,2.59,4.74,19.85,19.85,0,0,1,.92,6.23,20.86,20.86,0,0,1-.9,6.26,14.67,14.67,0,0,1-2.59,4.95,11.92,11.92,0,0,1-4.15,3.25,12.67,12.67,0,0,1-5.53,1.17,12.85,12.85,0,0,1-5.27-1.05,11.27,11.27,0,0,1-4-3,13.82,13.82,0,0,1-2.59-4.75A20,20,0,0,1,390.79,122.76Zm4.38-.12a36.32,36.32,0,0,0,.29,4.87,18.52,18.52,0,0,0,.83,3.59,8.81,8.81,0,0,0,1.3,2.49,6.46,6.46,0,0,0,1.71,1.57,6.26,6.26,0,0,0,2.06.82,11.06,11.06,0,0,0,2.34.23,11.22,11.22,0,0,0,2.35-.23,6.4,6.4,0,0,0,2.09-.83,6.72,6.72,0,0,0,1.75-1.6,9.23,9.23,0,0,0,1.34-2.55,18.57,18.57,0,0,0,.86-3.67,41.18,41.18,0,0,0,0-9.84,18.81,18.81,0,0,0-.83-3.6,9,9,0,0,0-1.3-2.5,6.58,6.58,0,0,0-1.7-1.57,6.21,6.21,0,0,0-2-.82,11.06,11.06,0,0,0-2.34-.23,11.31,11.31,0,0,0-2.36.24,6.83,6.83,0,0,0-2.1.83,6.4,6.4,0,0,0-1.75,1.6,9.25,9.25,0,0,0-1.34,2.55,18.4,18.4,0,0,0-.86,3.67A36.28,36.28,0,0,0,395.17,122.64Z" />
      <path class="cls-2" d="M5.83,157.07l12.69-.64,12.69-.49L56.59,155,82,154.28c8.46-.23,16.92-.35,25.38-.53L120,153.5l12.69-.15,25.38-.3,50.76-.23,50.76.24c16.92.23,33.84.31,50.76.71,8.46.18,16.92.29,25.38.53l25.38.7,25.38.95,12.69.48,12.69.64v.5l-203,.25-203-.25Z" />
    </g>
  </g>
</svg>